<svg width="408" height="74" viewBox="0 0 408 74" fill="none" xmlns="http://www.w3.org/2000/svg">
<path fill-rule="evenodd" clip-rule="evenodd" d="M115.229 32.565L115.295 58.9663H125.864L125.86 15.5116C110.067 15.5116 113.977 12.54 107.2 30.6408C105.337 35.6163 103.201 40.6414 101.478 45.8274L90.1664 15.5116H76.9202L76.9208 59.0182L87.3126 58.5989V34.01C89.5376 36.1953 91.3177 42.9981 92.634 46.7835C94.0309 50.7999 95.7431 54.9585 96.7965 58.9663L105.907 58.9113L115.229 32.565Z" fill="#FCF9F8"/>
<path fill-rule="evenodd" clip-rule="evenodd" d="M4.49489 46.703L4.51693 37.3594L4.51894 35.2034L4.49121 30.891L4.49489 3.56369H136.055H136.777V70.4366H4.49489V46.703ZM0.988209 32.3282L1.00491 45.2654L0.988209 74H2.38808H138.176H140.283V0H0.973511L0.988209 32.3282Z" fill="#FEFBF9"/>
<path fill-rule="evenodd" clip-rule="evenodd" d="M325.221 59.4999L330.782 59.3156L331.646 25.9023L350.745 55.5546C353.516 60.1189 352.562 59.4999 358.83 59.4999V14.9551H353.267L353.249 49.5249C351.185 47.485 332.252 17.8065 331.237 14.9836L325.222 14.9551L325.221 59.4999Z" fill="#79513A"/>
<path fill-rule="evenodd" clip-rule="evenodd" d="M153.355 38.8296H160.504C167.495 38.8296 174.856 41.613 171.497 50.1703C169.305 55.7522 160.118 54.6674 153.514 54.6708L153.366 51.9616L153.355 38.8296ZM153.56 19.7876C160.964 19.7876 171.375 18.0849 171.095 27.4794C170.834 36.1904 161.434 34.5426 153.394 34.5426L153.56 19.7876ZM147.79 19.6185L147.793 59.468C158.974 59.6215 173.882 61.4624 177.15 51.6153C178.285 48.1956 177.981 44.347 176.259 41.6871C174.333 38.7094 172.042 38.1437 169.474 36.1578C173.25 35.0126 175.8 33.3071 176.61 28.7848C179.638 11.8711 158.461 14.9082 147.788 14.9656L147.79 19.6185Z" fill="#79513A"/>
<path fill-rule="evenodd" clip-rule="evenodd" d="M407.827 35.6407L386.435 35.6455L386.272 39.6869L403.044 39.9327C402.72 58.5391 375.171 60.616 372.343 40.805C370.959 31.1168 375.135 23.5907 381.825 21.032C385.963 19.4494 391.118 19.8318 394.782 21.617C403.582 25.9043 395.521 28.9462 406.886 28.9462C400.646 5.13753 361.389 11.6028 366.795 42.1787C371.55 69.073 410.921 64.0925 407.827 35.6407Z" fill="#79513A"/>
<path fill-rule="evenodd" clip-rule="evenodd" d="M272.202 54.3147L272.205 19.9609C282.584 19.9609 297.055 18.9419 297.379 36.8611C297.67 53.0079 286.443 54.3147 272.202 54.3147ZM266.655 59.423C273.459 59.6314 283.895 59.9554 289.979 57.7562C293.693 56.4137 295.402 55.1445 297.672 52.6442C302.402 47.4341 304.234 39.8574 302.459 31.2795C299.037 14.7484 284.151 14.2941 266.655 15.0383L266.655 59.423Z" fill="#79513A"/>
<path fill-rule="evenodd" clip-rule="evenodd" d="M15.2098 23.4597L26.6926 23.8698L26.7698 58.9054H37.2785L37.2755 23.6077L49.053 23.5058L49.1359 15.0977L15.0006 15.098L15.2098 23.4597Z" fill="#FFFEFD"/>
<path fill-rule="evenodd" clip-rule="evenodd" d="M190.132 15.0511L184.564 14.9649C184.564 23.9825 183.837 36.7968 184.8 45.3717C187.004 65.0031 214.411 65.0955 216.556 45.1778C217.124 39.9001 217.287 20.0637 216.56 15.118L211.69 14.9395C208.121 27.222 217.966 53.3225 201.526 54.3167C192.425 54.8671 190.221 48.7626 190.128 40.4913C190.033 32.0359 190.133 23.5143 190.132 15.0511Z" fill="#79513A"/>
<path fill-rule="evenodd" clip-rule="evenodd" d="M56.6708 58.9054H67.257L67.3124 15.0977H56.6708V58.9054Z" fill="#FFFEFE"/>
<path fill-rule="evenodd" clip-rule="evenodd" d="M240.025 59.3441L260.559 59.5002L260.882 55.035L245.57 54.9671C245.572 47.8835 246.382 19.3659 245.107 14.9648L240.231 15.0355L240.025 59.3441Z" fill="#79513A"/>
<path fill-rule="evenodd" clip-rule="evenodd" d="M225.883 59.49L230.758 59.4422L231.004 15.069L225.887 14.9492C224.972 18.4719 224.969 55.9929 225.883 59.49Z" fill="#79513A"/>
<path fill-rule="evenodd" clip-rule="evenodd" d="M310.684 59.3753L315.796 59.5077C316.708 56.0954 316.708 18.3581 315.796 14.9648L310.92 15.0195L310.684 59.3753Z" fill="#79513A"/>
</svg>
